# xmcd CD database file
#
# Track frame offsets:
#	150
#	20020
#	46362
#	78277
#	99310
#	113145
#	132815
#	149920
#	181960
#	205352
#
# Disc length: 3028 seconds
#
# Revision: 0
# Processed by: cddbd v1.5.2PL0 Copyright (c) Steve Scherf et al.
# Submitted via: CDex 1.51
#
DISCID=8b0bd20a
DTITLE=Dan Rose - Conversation
DYEAR=1993
DGENRE=Jazz
TTITLE0=Fiber Optic Lover
TTITLE1=Great Harbour
TTITLE2=Marcia
TTITLE3=Conversation
TTITLE4=Carla, Carla, Carla
TTITLE5=Back Burner
TTITLE6=The Designer In You
TTITLE7=Across The Divide
TTITLE8=Shall We Dance?
TTITLE9=(Her) Care And Feeding
EXTD=YEAR: 1993
EXTT0=
EXTT1=
EXTT2=
EXTT3=
EXTT4=
EXTT5=
EXTT6=
EXTT7=
EXTT8=
EXTT9=
PLAYORDER=
